<svg id="visual" viewBox="0 0 900 600" width="900" height="600" xmlns="http://www.w3.org/2000/svg" xmlns:xlink="http://www.w3.org/1999/xlink" version="1.1"><rect x="0" y="0" width="900" height="600" fill="#2A0944"></rect><path d="M0 360L15 349.7C30 339.3 60 318.7 90 306C120 293.3 150 288.7 180 311.7C210 334.7 240 385.3 270 402.5C300 419.7 330 403.3 360 395C390 386.7 420 386.3 450 383.3C480 380.3 510 374.7 540 361C570 347.3 600 325.7 630 316.2C660 306.7 690 309.3 720 319.5C750 329.7 780 347.3 810 361.2C840 375 870 385 885 390L900 395L900 601L885 601C870 601 840 601 810 601C780 601 750 601 720 601C690 601 660 601 630 601C600 601 570 601 540 601C510 601 480 601 450 601C420 601 390 601 360 601C330 601 300 601 270 601C240 601 210 601 180 601C150 601 120 601 90 601C60 601 30 601 15 601L0 601Z" fill="#ff0000"></path><path d="M0 414L15 415.3C30 416.7 60 419.3 90 417C120 414.7 150 407.3 180 395C210 382.7 240 365.3 270 361.2C300 357 330 366 360 370C390 374 420 373 450 380C480 387 510 402 540 396.3C570 390.7 600 364.3 630 369.3C660 374.3 690 410.7 720 413.8C750 417 780 387 810 387.7C840 388.3 870 419.7 885 435.3L900 451L900 601L885 601C870 601 840 601 810 601C780 601 750 601 720 601C690 601 660 601 630 601C600 601 570 601 540 601C510 601 480 601 450 601C420 601 390 601 360 601C330 601 300 601 270 601C240 601 210 601 180 601C150 601 120 601 90 601C60 601 30 601 15 601L0 601Z" fill="#ff3800"></path><path d="M0 441L15 434.5C30 428 60 415 90 406.8C120 398.7 150 395.3 180 403.8C210 412.3 240 432.7 270 424.8C300 417 330 381 360 366.5C390 352 420 359 450 377.8C480 396.7 510 427.3 540 431.5C570 435.7 600 413.3 630 405.7C660 398 690 405 720 417.7C750 430.3 780 448.7 810 446.7C840 444.7 870 422.3 885 411.2L900 400L900 601L885 601C870 601 840 601 810 601C780 601 750 601 720 601C690 601 660 601 630 601C600 601 570 601 540 601C510 601 480 601 450 601C420 601 390 601 360 601C330 601 300 601 270 601C240 601 210 601 180 601C150 601 120 601 90 601C60 601 30 601 15 601L0 601Z" fill="#ff5200"></path><path d="M0 461L15 448.2C30 435.3 60 409.7 90 408.5C120 407.3 150 430.7 180 439.7C210 448.7 240 443.3 270 433.2C300 423 330 408 360 415.7C390 423.3 420 453.7 450 457.5C480 461.3 510 438.7 540 422.7C570 406.7 600 397.3 630 395.7C660 394 690 400 720 417.8C750 435.7 780 465.3 810 462.3C840 459.3 870 423.7 885 405.8L900 388L900 601L885 601C870 601 840 601 810 601C780 601 750 601 720 601C690 601 660 601 630 601C600 601 570 601 540 601C510 601 480 601 450 601C420 601 390 601 360 601C330 601 300 601 270 601C240 601 210 601 180 601C150 601 120 601 90 601C60 601 30 601 15 601L0 601Z" fill="#ff6600"></path><path d="M0 503L15 502.5C30 502 60 501 90 488.7C120 476.3 150 452.7 180 443.2C210 433.7 240 438.3 270 446.8C300 455.3 330 467.7 360 465C390 462.3 420 444.7 450 443.2C480 441.7 510 456.3 540 463.2C570 470 600 469 630 462.7C660 456.3 690 444.7 720 445.2C750 445.7 780 458.3 810 462.8C840 467.3 870 463.7 885 461.8L900 460L900 601L885 601C870 601 840 601 810 601C780 601 750 601 720 601C690 601 660 601 630 601C600 601 570 601 540 601C510 601 480 601 450 601C420 601 390 601 360 601C330 601 300 601 270 601C240 601 210 601 180 601C150 601 120 601 90 601C60 601 30 601 15 601L0 601Z" fill="#ff7700"></path><path d="M0 464L15 465C30 466 60 468 90 469.7C120 471.3 150 472.7 180 475.8C210 479 240 484 270 491.7C300 499.3 330 509.7 360 515.7C390 521.7 420 523.3 450 512C480 500.7 510 476.3 540 473.3C570 470.3 600 488.7 630 492.3C660 496 690 485 720 476.3C750 467.7 780 461.3 810 470.5C840 479.7 870 504.3 885 516.7L900 529L900 601L885 601C870 601 840 601 810 601C780 601 750 601 720 601C690 601 660 601 630 601C600 601 570 601 540 601C510 601 480 601 450 601C420 601 390 601 360 601C330 601 300 601 270 601C240 601 210 601 180 601C150 601 120 601 90 601C60 601 30 601 15 601L0 601Z" fill="#ff8700"></path><path d="M0 514L15 522.3C30 530.7 60 547.3 90 548.5C120 549.7 150 535.3 180 532.5C210 529.7 240 538.3 270 539.5C300 540.7 330 534.3 360 524.7C390 515 420 502 450 507.7C480 513.3 510 537.7 540 549.5C570 561.3 600 560.7 630 553C660 545.3 690 530.7 720 531C750 531.3 780 546.7 810 552C840 557.3 870 552.7 885 550.3L900 548L900 601L885 601C870 601 840 601 810 601C780 601 750 601 720 601C690 601 660 601 630 601C600 601 570 601 540 601C510 601 480 601 450 601C420 601 390 601 360 601C330 601 300 601 270 601C240 601 210 601 180 601C150 601 120 601 90 601C60 601 30 601 15 601L0 601Z" fill="#ff9600"></path><path d="M0 574L15 576C30 578 60 582 90 575.5C120 569 150 552 180 544.8C210 537.7 240 540.3 270 543.7C300 547 330 551 360 557.3C390 563.7 420 572.3 450 572C480 571.7 510 562.3 540 563C570 563.7 600 574.3 630 574.7C660 575 690 565 720 556.7C750 548.3 780 541.7 810 544.7C840 547.7 870 560.3 885 566.7L900 573L900 601L885 601C870 601 840 601 810 601C780 601 750 601 720 601C690 601 660 601 630 601C600 601 570 601 540 601C510 601 480 601 450 601C420 601 390 601 360 601C330 601 300 601 270 601C240 601 210 601 180 601C150 601 120 601 90 601C60 601 30 601 15 601L0 601Z" fill="#ffa500"></path></svg>